<svg xmlns="http://www.w3.org/2000/svg" viewBox="0 0 20 19.50988"><defs><style>.a{fill:gold;}</style></defs><title>starColor</title><path class="a" d="M19.97408,7.429a.46588.46588,0,0,0-.43168-.326H12.59022L10.43187.326A.46588.46588,0,0,0,10.0002,0h0a.46586.46586,0,0,0-.43167.326L7.41017,7.103H.458a.46587.46587,0,0,0-.43167.326.44817.44817,0,0,0,.159.51235L5.79708,12.11,3.63873,18.88692a.44815.44815,0,0,0,.159.51234.44552.44552,0,0,0,.54527,0l5.63445-4.19191,5.63444,4.2152a.4689.4689,0,0,0,.54527,0,.44814.44814,0,0,0,.159-.51234l-2.15836-6.77694,5.63445-4.16863a.47022.47022,0,0,0,.18175-.53563Z"/></svg>